<?xml version="1.0" encoding="UTF-8"?>
<svg width="33px" height="33px" viewBox="0 0 33 33" version="1.1" xmlns="http://www.w3.org/2000/svg" xmlns:xlink="http://www.w3.org/1999/xlink">
    <!-- Generator: Sketch 50.2 (55047) - http://www.bohemiancoding.com/sketch -->
    <title>cross</title>
    <desc>Created with Sketch.</desc>
    <defs></defs>
    <g id="Page-1" stroke="none" stroke-width="1" fill="none" fill-rule="evenodd">
        <g id="cross" fill="#4A5E77" fill-rule="nonzero">
            <path d="M22.755,16.5 L32.1365625,7.11843752 C33.2878125,5.9671875 33.2878125,4.100625 32.1365625,2.9484375 L30.0515625,0.863437503 C28.9003125,-0.287812499 27.03375,-0.287812499 25.8815625,0.863437503 L16.5,10.245 L7.11843752,0.863437503 C5.9671875,-0.287812499 4.100625,-0.287812499 2.9484375,0.863437503 L0.863437503,2.9484375 C-0.287812499,4.0996875 -0.287812499,5.96625 0.863437503,7.11843752 L10.245,16.5 L0.863437503,25.8815625 C-0.287812499,27.0328125 -0.287812499,28.899375 0.863437503,30.0515625 L2.9484375,32.1365625 C4.0996875,33.2878125 5.9671875,33.2878125 7.11843752,32.1365625 L16.5,22.755 L25.8815625,32.1365625 C27.0328125,33.2878125 28.9003125,33.2878125 30.0515625,32.1365625 L32.1365625,30.0515625 C33.2878125,28.9003125 33.2878125,27.03375 32.1365625,25.8815625 L22.755,16.5 Z" id="Shape"></path>
        </g>
    </g>
</svg>